<svg width="60" height="60" viewBox="0 0 60 60" fill="none" xmlns="http://www.w3.org/2000/svg">
    <circle opacity="0.2" cx="30" cy="30" r="30" fill="#2E90D1"/>
    <path d="M46.8167 25.9828L45.15 25.0661L30.15 16.7328H29.9667C29.8645 16.6896 29.7585 16.6561 29.65 16.6328H29.3333H29.0333C28.9195 16.6561 28.8079 16.6896 28.7 16.7328H28.5167L13.5167 25.0661C13.2602 25.2115 13.0468 25.4223 12.8984 25.677C12.75 25.9318 12.6718 26.2213 12.6718 26.5161C12.6718 26.811 12.75 27.1005 12.8984 27.3552C13.0468 27.61 13.2602 27.8208 13.5167 27.9661L17.6667 30.2661V38.1661C17.6667 39.4922 18.1935 40.764 19.1311 41.7017C20.0688 42.6394 21.3406 43.1661 22.6667 43.1661H36C37.3261 43.1661 38.5979 42.6394 39.5355 41.7017C40.4732 40.764 41 39.4922 41 38.1661V30.2661L44.3333 28.3995V33.1661C44.3333 33.6082 44.5089 34.0321 44.8215 34.3447C45.134 34.6572 45.558 34.8328 46 34.8328C46.442 34.8328 46.866 34.6572 47.1785 34.3447C47.4911 34.0321 47.6667 33.6082 47.6667 33.1661V27.4328C47.6662 27.1375 47.5872 26.8476 47.4378 26.5928C47.2885 26.338 47.0741 26.1275 46.8167 25.9828ZM37.6667 38.1661C37.6667 38.6082 37.4911 39.0321 37.1785 39.3447C36.866 39.6572 36.442 39.8328 36 39.8328H22.6667C22.2246 39.8328 21.8007 39.6572 21.4882 39.3447C21.1756 39.0321 21 38.6082 21 38.1661V32.1161L28.5167 36.2828L28.7667 36.3828H28.9167C29.055 36.4002 29.195 36.4002 29.3333 36.3828C29.4717 36.4002 29.6117 36.4002 29.75 36.3828H29.9C29.9885 36.3642 30.0731 36.3303 30.15 36.2828L37.6667 32.1161V38.1661ZM29.3333 32.9328L17.7667 26.4995L29.3333 20.0661L40.9 26.4995L29.3333 32.9328Z" fill="#2E90D1"/>
</svg>
