<svg width="74" height="47" viewBox="0 0 74 47" fill="none" xmlns="http://www.w3.org/2000/svg">
    <path fill-rule="evenodd" clip-rule="evenodd" d="M43.1244 26.6075H59.2943C61.8259 27.5036 67.8692 30.0291 71.7892 32.962C73.0959 34.5913 74.5822 38.3389 70.0742 40.2941H41.4094C39.6944 41.6791 35.6274 43.618 33.0794 40.2941H28.9144V46.1598H28.1794L25.2394 43.7158L21.8094 45.671L21.3194 44.9378V40.5385H3.67952C0.902869 38.5833 -2.98445 34.184 3.67952 32.2288H21.0745C16.0928 31.2512 5.63951 29.247 3.67952 29.0515C1.22954 28.8071 3.67953 27.0963 4.16953 27.0963C6.53785 26.2816 11.3235 24.75 11.5195 25.141C12.1728 25.1411 13.2835 25.4343 12.4995 26.6075L8.57951 27.5851C14.2962 28.8886 26.2684 31.4467 28.4244 31.2512C21.8095 27.911 8.13851 20.8884 6.37452 19.5198C4.61053 18.1511 7.92618 17.8089 9.8045 17.8089H14.2145C14.6228 18.1348 15.1945 18.9332 14.2145 19.5198H10.5395C16.0928 22.4526 27.7384 28.7094 29.8944 30.2735C24.0961 23.8376 12.5485 10.379 12.7445 8.03275C14.0512 7.95129 17.8895 8.32604 22.7894 10.4768C22.9528 11.0471 22.8874 12.1387 21.3194 11.9432C20.5845 11.7803 18.5265 11.3078 16.1745 10.7212L30.6294 28.0739L22.2994 3.63347C22.1361 1.18943 24.2594 -1.89006 34.0594 5.3443C34.6311 5.3443 35.9704 6.1264 36.7544 9.25477L43.1244 26.6075ZM40.4294 27.0963L39.2044 29.5403C38.454 29.5403 38.2552 29.3569 38.1012 29.2148C38.0037 29.1249 37.9242 29.0515 37.7344 29.0515C37.3424 29.0515 32.0177 13.2467 29.4044 5.3443L32.8344 7.78834C33.8144 7.98387 34.3861 8.84743 34.5494 9.25477L40.4294 27.0963ZM33.8144 30.0291L35.5294 29.5403L26.4644 3.63347C25.7294 3.3076 24.3574 3.09578 24.7494 4.85549L33.8144 30.0291ZM65.1743 32.2288H42.3894C40.0374 31.6422 41.4094 29.2145 42.3894 28.0739H59.2943L65.1743 32.2288ZM43.1244 29.5403H45.5743V30.5179H43.1244V29.5403ZM48.2693 29.5403H50.2293V30.5179H48.2693V29.5403ZM52.9243 29.0515L53.1693 30.7623H55.6193L54.8843 29.5403L52.9243 29.0515ZM57.8243 29.5403C58.2163 29.5403 58.4776 30.355 58.5593 30.7623H61.0093L59.5393 29.5403H57.8243ZM42.8794 38.0945C43.206 37.2798 43.7614 35.4549 43.3694 34.6728H70.0742C70.8092 35.4875 71.6912 37.3124 69.3392 38.0945H42.8794ZM36.7544 32.4732C41.4094 32.4732 41.1363 38.8277 36.7544 38.8277C33.0794 38.8277 32.5894 32.4732 36.7544 32.4732ZM30.6294 34.6728C30.7927 35.8134 31.0704 38.0945 30.8744 38.0945H28.9144C29.0777 37.2798 28.8654 35.6504 26.7094 35.6504H22.7894C22.1361 35.6504 20.8785 36.1392 21.0745 38.0945H4.16953C2.69953 38.0945 1.42554 34.6728 4.16953 34.6728H30.6294ZM23.5244 42.7382V37.6057H26.4644V42.7382C25.4844 41.3695 24.0961 42.1679 23.5244 42.7382Z" fill="#78258D"/>
</svg>
