<svg width="89" height="55" viewBox="0 0 89 55" fill="none" xmlns="http://www.w3.org/2000/svg">
    <path fill-rule="evenodd" clip-rule="evenodd" d="M52.3377 31.2704H71.9622C75.0348 32.358 82.3692 35.4231 87.1267 38.9825C88.7125 40.96 90.5164 45.5082 85.0453 47.8811H50.2563C48.1749 49.562 43.239 51.9151 40.1467 47.8811H35.0918V55H34.1998L30.6317 52.0338L26.4689 54.4068L25.8742 53.5169V48.1777H4.46564C1.09576 45.8048 -3.62206 40.4656 4.46564 38.0927H25.5769C19.531 36.9062 6.84436 34.4739 4.46564 34.2366C1.49223 33.94 4.46564 31.8636 5.06033 31.8636C7.93463 30.8749 13.7427 29.0161 13.9806 29.4907C14.7735 29.4907 16.1214 29.8466 15.17 31.2704L10.4125 32.4569C17.3505 34.0389 31.8806 37.1435 34.4972 36.9062C26.4689 32.8524 9.87727 24.3295 7.7364 22.6684C5.59554 21.0073 9.61957 20.5921 11.8992 20.5921H17.2513C17.7469 20.9876 18.4407 21.9565 17.2513 22.6684H12.7912C19.531 26.2279 33.6646 33.8213 36.2812 35.7197C29.2441 27.9087 15.2294 11.5748 15.4673 8.72727C17.0531 8.6284 21.7115 9.08321 27.6583 11.6935C27.8565 12.3856 27.7772 13.7105 25.8742 13.4732C24.9822 13.2754 22.4846 12.702 19.6301 11.9901L37.1732 33.0501L27.0636 3.38811C26.8654 0.421904 29.4424 -3.31551 41.336 5.46445C42.0298 5.46445 43.6553 6.41363 44.6068 10.2104L52.3377 31.2704ZM49.0669 31.8636L47.5802 34.8298C46.6695 34.8298 46.4282 34.6072 46.2413 34.4347C46.1231 34.3256 46.0266 34.2366 45.7962 34.2366C45.3204 34.2366 38.8582 15.0552 35.6865 5.46445L39.8493 8.43064C41.0387 8.66794 41.7325 9.716 41.9307 10.2104L49.0669 31.8636ZM41.0387 35.4231L43.1201 34.8298L32.1184 3.38811C31.2264 2.99261 29.5613 2.73554 30.037 4.8712L41.0387 35.4231ZM79.0984 38.0927H51.4457C48.5912 37.3808 50.2563 34.4343 51.4457 33.0501H71.9622L79.0984 38.0927ZM52.3377 34.8298H55.3111V36.0163H52.3377V34.8298ZM58.5819 34.8298H60.9606V36.0163H58.5819V34.8298ZM64.2314 34.2366L64.5287 36.3129H67.5021L66.6101 34.8298L64.2314 34.2366ZM70.1782 34.8298C70.6539 34.8298 70.9711 35.8186 71.0702 36.3129H74.0436L72.2596 34.8298H70.1782ZM52.0403 45.2115C52.4368 44.2228 53.1108 42.008 52.635 41.0589H85.0453C85.9373 42.0476 87.0077 44.2624 84.1533 45.2115H52.0403ZM44.6068 38.3893C50.2563 38.3893 49.9249 46.1014 44.6068 46.1014C40.1467 46.1014 39.552 38.3893 44.6068 38.3893ZM37.1732 41.0589C37.3715 42.4431 37.7085 45.2115 37.4706 45.2115H35.0918C35.2901 44.2228 35.0324 42.2453 32.4158 42.2453H27.6583C26.8654 42.2453 25.339 42.8386 25.5769 45.2115H5.06033C3.27628 45.2115 1.7301 41.0589 5.06033 41.0589H37.1732ZM28.5503 50.8473V44.6183H32.1184V50.8473C30.9291 49.1862 29.2441 50.1552 28.5503 50.8473Z" fill="#D9C7DC"/>
</svg>
