<svg width="149" height="55" viewBox="0 0 149 55" fill="none" xmlns="http://www.w3.org/2000/svg">
    <g clip-path="url(#clip0_733_580)">
        <path d="M75.9495 16.3622C74.5235 17.8451 72.7711 18.5865 70.6922 18.5865C68.6133 18.5865 66.8542 17.8451 65.415 16.3622C63.9891 14.8511 63.2761 13.0081 63.2761 10.8333C63.2761 8.64431 63.9891 6.8084 65.415 5.32554C66.8409 3.82857 68.6 3.08008 70.6922 3.08008C72.7845 3.08008 74.5369 3.82857 75.9495 5.32554C77.3887 6.8084 78.1083 8.64431 78.1083 10.8333C78.1083 13.0081 77.3887 14.8511 75.9495 16.3622ZM68.2335 13.4177C68.8865 14.0956 69.7061 14.4345 70.6922 14.4345C71.6784 14.4345 72.4913 14.0956 73.1309 13.4177C73.7839 12.7257 74.1104 11.8642 74.1104 10.8333C74.1104 9.80235 73.7839 8.94794 73.1309 8.27007C72.4913 7.57807 71.6784 7.23207 70.6922 7.23207C69.7061 7.23207 68.8865 7.57807 68.2335 8.27007C67.5939 8.94794 67.274 9.80235 67.274 10.8333C67.274 11.8501 67.5939 12.7116 68.2335 13.4177ZM85.984 7.35917C87.3299 7.35917 88.4294 7.88876 89.2822 8.94794C90.1351 9.993 90.5616 11.3276 90.5616 12.9516C90.5616 14.5757 90.1351 15.9103 89.2822 16.9554C88.4294 18.0145 87.3299 18.5441 85.984 18.5441C84.8379 18.5441 83.9451 18.1275 83.3054 17.2943V22.4843H79.6074V7.65574H83.3054V8.609C83.9451 7.77578 84.8379 7.35917 85.984 7.35917ZM83.7851 14.371C84.1183 14.7523 84.5514 14.9429 85.0845 14.9429C85.6175 14.9429 86.044 14.7523 86.3638 14.371C86.6969 13.9896 86.8635 13.5165 86.8635 12.9516C86.8635 12.3868 86.6969 11.9137 86.3638 11.5323C86.044 11.151 85.6175 10.9604 85.0845 10.9604C84.5514 10.9604 84.1183 11.151 83.7851 11.5323C83.4653 11.9137 83.3054 12.3868 83.3054 12.9516C83.3054 13.5165 83.4653 13.9896 83.7851 14.371ZM101.864 14.2862H95.228C95.5478 14.9923 96.2275 15.3454 97.2669 15.3454C97.8666 15.3454 98.4329 15.1194 98.966 14.6675L101.385 16.8283C100.385 17.9722 98.9726 18.5441 97.1469 18.5441C95.4546 18.5441 94.0819 18.0216 93.0292 16.9765C92.003 15.9174 91.49 14.5898 91.49 12.994C91.49 11.3841 91.9897 10.0424 92.9892 8.96913C94.002 7.89582 95.2747 7.35917 96.8071 7.35917C98.3263 7.35917 99.5723 7.88876 100.545 8.94794C101.531 9.993 102.024 11.3134 102.024 12.9093C102.024 13.3471 101.971 13.8061 101.864 14.2862ZM95.168 11.7654H98.5262C98.313 10.918 97.7733 10.4943 96.9071 10.4943C96.0409 10.4943 95.4612 10.918 95.168 11.7654ZM109.692 7.35917C110.811 7.35917 111.691 7.76872 112.33 8.58782C112.983 9.40692 113.31 10.5861 113.31 12.1255V18.2476H109.612V12.5492C109.612 11.603 109.199 11.1299 108.372 11.1299C107.933 11.1299 107.593 11.2781 107.353 11.5747C107.126 11.8713 107.013 12.2808 107.013 12.8034V18.2476H103.315V7.65574H107.013V8.69374C107.639 7.80403 108.532 7.35917 109.692 7.35917ZM119.211 12.6974V14.3498H124.408V18.2476H115.213V3.41902H124.308V7.27444H119.211V8.88439H123.808V12.6974H119.211ZM132.629 8.609V3.41902H136.327V18.2476H132.629V17.2943C131.99 18.1275 131.097 18.5441 129.951 18.5441C128.605 18.5441 127.505 18.0145 126.652 16.9554C125.799 15.9103 125.373 14.5757 125.373 12.9516C125.373 11.3276 125.799 9.993 126.652 8.94794C127.505 7.88876 128.605 7.35917 129.951 7.35917C131.097 7.35917 131.99 7.77578 132.629 8.609ZM129.551 14.371C129.897 14.7523 130.33 14.9429 130.85 14.9429C131.383 14.9429 131.81 14.7523 132.129 14.371C132.463 13.9896 132.629 13.5165 132.629 12.9516C132.629 12.3868 132.463 11.9137 132.129 11.5323C131.81 11.151 131.383 10.9604 130.85 10.9604C130.33 10.9604 129.897 11.151 129.551 11.5323C129.231 11.9137 129.071 12.3868 129.071 12.9516C129.071 13.5165 129.231 13.9896 129.551 14.371ZM144.332 13.0999V7.65574H148.03V18.2476H144.332V17.2096C143.719 18.0993 142.826 18.5441 141.653 18.5441C140.534 18.5441 139.647 18.1346 138.995 17.3155C138.355 16.4964 138.035 15.3172 138.035 13.7778V7.65574H141.733V13.3541C141.733 14.3003 142.146 14.7734 142.972 14.7734C143.412 14.7734 143.745 14.6252 143.972 14.3286C144.212 14.032 144.332 13.6225 144.332 13.0999Z" fill="white"/>
    </g>
    <path fill-rule="evenodd" clip-rule="evenodd" d="M52.3377 31.2704H71.9622C75.0348 32.358 82.3692 35.4231 87.1267 38.9825C88.7125 40.96 90.5164 45.5082 85.0453 47.8811H50.2563C48.1749 49.562 43.239 51.9151 40.1467 47.8811H35.0918V55H34.1998L30.6317 52.0338L26.4689 54.4068L25.8742 53.5169V48.1777H4.46564C1.09576 45.8048 -3.62206 40.4656 4.46564 38.0927H25.5769C19.531 36.9062 6.84436 34.4739 4.46564 34.2366C1.49223 33.94 4.46564 31.8636 5.06033 31.8636C7.93463 30.8749 13.7427 29.0161 13.9806 29.4907C14.7735 29.4907 16.1214 29.8466 15.17 31.2704L10.4125 32.4569C17.3505 34.0389 31.8806 37.1435 34.4972 36.9062C26.4689 32.8524 9.87727 24.3295 7.7364 22.6684C5.59554 21.0073 9.61957 20.5921 11.8992 20.5921H17.2513C17.7469 20.9876 18.4407 21.9565 17.2513 22.6684H12.7912C19.531 26.2279 33.6646 33.8213 36.2812 35.7197C29.2441 27.9087 15.2294 11.5748 15.4673 8.72727C17.0531 8.6284 21.7115 9.08321 27.6583 11.6935C27.8565 12.3856 27.7772 13.7105 25.8742 13.4732C24.9822 13.2754 22.4846 12.702 19.6301 11.9901L37.1732 33.0501L27.0636 3.38811C26.8654 0.421904 29.4424 -3.31551 41.336 5.46445C42.0298 5.46445 43.6553 6.41363 44.6068 10.2104L52.3377 31.2704ZM49.0669 31.8636L47.5802 34.8298C46.6695 34.8298 46.4282 34.6072 46.2413 34.4347C46.1231 34.3256 46.0266 34.2366 45.7962 34.2366C45.3204 34.2366 38.8582 15.0552 35.6865 5.46445L39.8493 8.43064C41.0387 8.66794 41.7325 9.716 41.9307 10.2104L49.0669 31.8636ZM41.0387 35.4231L43.1201 34.8298L32.1184 3.38811C31.2264 2.99261 29.5613 2.73554 30.037 4.8712L41.0387 35.4231ZM79.0984 38.0927H51.4457C48.5912 37.3808 50.2563 34.4343 51.4457 33.0501H71.9622L79.0984 38.0927ZM52.3377 34.8298H55.3111V36.0163H52.3377V34.8298ZM58.5819 34.8298H60.9606V36.0163H58.5819V34.8298ZM64.2314 34.2366L64.5287 36.3129H67.5021L66.6101 34.8298L64.2314 34.2366ZM70.1782 34.8298C70.6539 34.8298 70.9711 35.8186 71.0702 36.3129H74.0436L72.2596 34.8298H70.1782ZM52.0403 45.2115C52.4368 44.2228 53.1108 42.008 52.635 41.0589H85.0453C85.9373 42.0476 87.0077 44.2624 84.1533 45.2115H52.0403ZM44.6068 38.3893C50.2563 38.3893 49.9249 46.1014 44.6068 46.1014C40.1467 46.1014 39.552 38.3893 44.6068 38.3893ZM37.1732 41.0589C37.3715 42.4431 37.7085 45.2115 37.4706 45.2115H35.0918C35.2901 44.2228 35.0324 42.2453 32.4158 42.2453H27.6583C26.8654 42.2453 25.339 42.8386 25.5769 45.2115H5.06033C3.27628 45.2115 1.7301 41.0589 5.06033 41.0589H37.1732ZM28.5503 50.8473V44.6183H32.1184V50.8473C30.9291 49.1862 29.2441 50.1552 28.5503 50.8473Z" fill="#D9C7DC"/>
    <defs>
        <clipPath id="clip0_733_580">
            <rect width="84.9552" height="19.4183" fill="white" transform="translate(63.1096 3.06641)"/>
        </clipPath>
    </defs>
</svg>
