<svg width="22" height="16" viewBox="0 0 22 16" fill="none" xmlns="http://www.w3.org/2000/svg">
    <path d="M22 5.7095C22.0495 4.27815 21.7365 2.85751 21.09 1.5795C20.6514 1.05509 20.0427 0.701206 19.37 0.579496C16.5875 0.327021 13.7936 0.22354 11 0.269496C8.21667 0.221454 5.43274 0.321596 2.66003 0.569496C2.11185 0.669213 1.60454 0.926338 1.20003 1.3095C0.300027 2.1395 0.200027 3.5595 0.100027 4.7595C-0.045061 6.91706 -0.045061 9.08193 0.100027 11.2395C0.128957 11.9149 0.229521 12.5853 0.400027 13.2395C0.520602 13.7446 0.76455 14.2118 1.11003 14.5995C1.51729 15.003 2.03641 15.2747 2.60003 15.3795C4.75594 15.6456 6.92824 15.7559 9.10003 15.7095C12.6 15.7595 15.67 15.7095 19.3 15.4295C19.8775 15.3311 20.4112 15.059 20.83 14.6495C21.11 14.3694 21.3191 14.0266 21.44 13.6495C21.7977 12.5521 21.9733 11.4036 21.96 10.2495C22 9.6895 22 6.3095 22 5.7095ZM8.74003 10.8495V4.6595L14.66 7.7695C13 8.6895 10.81 9.7295 8.74003 10.8495Z" fill="white"/>
</svg>
