<svg width="173" height="58" viewBox="0 0 173 58" fill="none" xmlns="http://www.w3.org/2000/svg">
    <path d="M4.28 26.16H15.16V27.84H4.28L9.44 33H7.1L1.1 27L7.1 21H9.44L4.28 26.16ZM31.8295 25.94V20H33.6695V34H31.8295V27.7H25.0295V34H23.1695V20H25.0295V25.94H31.8295ZM44.9656 25.72V24H46.7056V34H44.9656V32.28C44.1123 33.6 42.8523 34.26 41.1856 34.26C39.7723 34.26 38.579 33.7533 37.6056 32.74C36.619 31.7133 36.1256 30.4667 36.1256 29C36.1256 27.5467 36.619 26.3067 37.6056 25.28C38.5923 24.2533 39.7856 23.74 41.1856 23.74C42.8523 23.74 44.1123 24.4 44.9656 25.72ZM41.4056 32.58C42.419 32.58 43.2656 32.24 43.9456 31.56C44.6256 30.8533 44.9656 30 44.9656 29C44.9656 27.9867 44.6256 27.14 43.9456 26.46C43.2656 25.7667 42.419 25.42 41.4056 25.42C40.4056 25.42 39.5656 25.7667 38.8856 26.46C38.2056 27.14 37.8656 27.9867 37.8656 29C37.8656 30 38.2056 30.8533 38.8856 31.56C39.5656 32.24 40.4056 32.58 41.4056 32.58ZM54.9419 28.88C56.0485 29.3467 56.6019 30.14 56.6019 31.26C56.6019 32.1267 56.2619 32.8467 55.5819 33.42C54.9019 33.98 53.9619 34.26 52.7619 34.26C50.7619 34.26 49.4219 33.46 48.7419 31.86L50.2019 31C50.5752 32.0933 51.4352 32.64 52.7819 32.64C53.4352 32.64 53.9485 32.5 54.3219 32.22C54.6952 31.94 54.8819 31.5667 54.8819 31.1C54.8819 30.7 54.7285 30.3733 54.4219 30.12C54.1285 29.8667 53.7285 29.74 53.2219 29.74H51.7619V28.16H52.8419C53.3485 28.16 53.7419 28.04 54.0219 27.8C54.3019 27.5467 54.4419 27.2067 54.4419 26.78C54.4419 26.34 54.2752 25.9933 53.9419 25.74C53.6085 25.4733 53.1619 25.34 52.6019 25.34C51.4819 25.34 50.7219 25.8133 50.3219 26.76L48.9019 25.94C49.6085 24.4733 50.8419 23.74 52.6019 23.74C53.6685 23.74 54.5219 24.02 55.1619 24.58C55.8152 25.1267 56.1419 25.8133 56.1419 26.64C56.1419 27.6533 55.7419 28.4 54.9419 28.88ZM66.9672 25.72V24H68.7072V34H66.9672V32.28C66.1139 33.6 64.8539 34.26 63.1872 34.26C61.7739 34.26 60.5805 33.7533 59.6072 32.74C58.6205 31.7133 58.1272 30.4667 58.1272 29C58.1272 27.5467 58.6205 26.3067 59.6072 25.28C60.5939 24.2533 61.7872 23.74 63.1872 23.74C64.8539 23.74 66.1139 24.4 66.9672 25.72ZM63.4072 32.58C64.4205 32.58 65.2672 32.24 65.9472 31.56C66.6272 30.8533 66.9672 30 66.9672 29C66.9672 27.9867 66.6272 27.14 65.9472 26.46C65.2672 25.7667 64.4205 25.42 63.4072 25.42C62.4072 25.42 61.5672 25.7667 60.8872 26.46C60.2072 27.14 59.8672 27.9867 59.8672 29C59.8672 30 60.2072 30.8533 60.8872 31.56C61.5672 32.24 62.4072 32.58 63.4072 32.58ZM80.1434 24V32.34H81.5234V36.68H79.8034V34H72.3034V36.68H70.5834V32.34H71.8034C72.4434 31.46 72.7634 30.2267 72.7634 28.64V24H80.1434ZM73.7834 32.34H78.4234V25.62H74.4834V28.64C74.4834 30.1067 74.2501 31.34 73.7834 32.34ZM92.3189 28.84L97.2589 34H95.0989L90.5389 29.26V34H88.7989V24H90.5389V28.42L94.8589 24H97.0989L92.3189 28.84ZM107.797 28.84L112.737 34H110.577L106.017 29.26V34H104.277V24H106.017V28.42L110.337 24H112.577L107.797 28.84ZM118.362 31.84L121.242 24H123.102L119.022 34.62C118.596 35.7533 117.996 36.6133 117.222 37.2C116.449 37.8 115.569 38.0667 114.582 38V36.38C115.796 36.4733 116.696 35.8067 117.282 34.38L117.442 34.02L113.102 24H114.942L118.362 31.84ZM130.275 23.74C131.675 23.74 132.868 24.2533 133.855 25.28C134.842 26.3067 135.335 27.5467 135.335 29C135.335 30.4667 134.842 31.7133 133.855 32.74C132.882 33.7533 131.688 34.26 130.275 34.26C128.622 34.26 127.362 33.6 126.495 32.28V38H124.755V24H126.495V25.72C127.362 24.4 128.622 23.74 130.275 23.74ZM130.055 32.58C131.055 32.58 131.895 32.24 132.575 31.56C133.255 30.8533 133.595 30 133.595 29C133.595 27.9867 133.255 27.14 132.575 26.46C131.895 25.7667 131.055 25.42 130.055 25.42C129.042 25.42 128.195 25.7667 127.515 26.46C126.835 27.14 126.495 27.9867 126.495 29C126.495 30 126.835 30.8533 127.515 31.56C128.195 32.24 129.042 32.58 130.055 32.58ZM142.311 34.26C140.805 34.26 139.551 33.76 138.551 32.76C137.551 31.7467 137.051 30.4933 137.051 29C137.051 27.5067 137.551 26.26 138.551 25.26C139.551 24.2467 140.805 23.74 142.311 23.74C143.298 23.74 144.185 23.98 144.971 24.46C145.758 24.9267 146.345 25.56 146.731 26.36L145.271 27.2C145.018 26.6667 144.625 26.24 144.091 25.92C143.571 25.6 142.978 25.44 142.311 25.44C141.311 25.44 140.471 25.78 139.791 26.46C139.125 27.1533 138.791 28 138.791 29C138.791 29.9867 139.125 30.8267 139.791 31.52C140.471 32.2 141.311 32.54 142.311 32.54C142.978 32.54 143.578 32.3867 144.111 32.08C144.645 31.76 145.051 31.3333 145.331 30.8L146.811 31.66C146.371 32.46 145.751 33.0933 144.951 33.56C144.151 34.0267 143.271 34.26 142.311 34.26ZM156.873 25.72V24H158.613V34H156.873V32.28C156.019 33.6 154.759 34.26 153.093 34.26C151.679 34.26 150.486 33.7533 149.513 32.74C148.526 31.7133 148.033 30.4667 148.033 29C148.033 27.5467 148.526 26.3067 149.513 25.28C150.499 24.2533 151.693 23.74 153.093 23.74C154.759 23.74 156.019 24.4 156.873 25.72ZM153.313 32.58C154.326 32.58 155.173 32.24 155.853 31.56C156.533 30.8533 156.873 30 156.873 29C156.873 27.9867 156.533 27.14 155.853 26.46C155.173 25.7667 154.326 25.42 153.313 25.42C152.313 25.42 151.473 25.7667 150.793 26.46C150.113 27.14 149.773 27.9867 149.773 29C149.773 30 150.113 30.8533 150.793 31.56C151.473 32.24 152.313 32.58 153.313 32.58ZM169.589 24H171.449V34H169.749V26.74L166.569 31.86H166.349L163.169 26.74V34H161.449V24H163.309L166.449 29.06L169.589 24Z" fill="#232323"/>
</svg>
