<svg width="119" height="34" viewBox="0 0 119 34" fill="none" xmlns="http://www.w3.org/2000/svg">
    <g clip-path="url(#clip0_918_3342)">
        <path d="M8.46093 8.37354L25.2955 25.2081M25.2517 8.41723L8.41712 25.2518" stroke="black" stroke-width="3" stroke-linecap="round"/>
        <path d="M46.9689 14.594C48.4889 15.2473 49.2489 16.3873 49.2489 18.014C49.2489 19.214 48.7956 20.194 47.8889 20.954C46.9956 21.714 45.8089 22.094 44.3289 22.094C43.0223 22.094 41.9489 21.8073 41.1089 21.234C40.2823 20.6607 39.6956 19.874 39.3489 18.874L40.9289 17.974C41.3423 19.5473 42.4756 20.334 44.3289 20.334C45.2889 20.334 46.0356 20.1207 46.5689 19.694C47.1156 19.2673 47.3889 18.6873 47.3889 17.954C47.3889 17.2207 47.1356 16.6407 46.6289 16.214C46.1223 15.774 45.4289 15.554 44.5489 15.554H42.9089V13.854H44.0889C44.9289 13.854 45.6023 13.6473 46.1089 13.234C46.6289 12.8073 46.8889 12.254 46.8889 11.574C46.8889 10.894 46.6489 10.3473 46.1689 9.93398C45.6889 9.52065 45.0356 9.31398 44.2089 9.31398C42.6623 9.31398 41.6289 10.0007 41.1089 11.374L39.5489 10.474C40.3889 8.54065 41.9423 7.57398 44.2089 7.57398C45.5556 7.57398 46.6423 7.94732 47.4689 8.69398C48.3089 9.42732 48.7289 10.374 48.7289 11.534C48.7289 12.8807 48.1423 13.9007 46.9689 14.594ZM59.758 13.554V11.834H61.498V21.834H59.758V20.114C58.9047 21.434 57.6447 22.094 55.978 22.094C54.5647 22.094 53.3713 21.5873 52.398 20.574C51.4113 19.5473 50.918 18.3007 50.918 16.834C50.918 15.3807 51.4113 14.1407 52.398 13.114C53.3847 12.0873 54.578 11.574 55.978 11.574C57.6447 11.574 58.9047 12.234 59.758 13.554ZM56.198 20.414C57.2113 20.414 58.058 20.074 58.738 19.394C59.418 18.6873 59.758 17.834 59.758 16.834C59.758 15.8207 59.418 14.974 58.738 14.294C58.058 13.6007 57.2113 13.254 56.198 13.254C55.198 13.254 54.358 13.6007 53.678 14.294C52.998 14.974 52.658 15.8207 52.658 16.834C52.658 17.834 52.998 18.6873 53.678 19.394C54.358 20.074 55.198 20.414 56.198 20.414ZM67.8543 16.674L72.7943 21.834H70.6343L66.0743 17.094V21.834H64.3343V11.834H66.0743V16.254L70.3943 11.834H72.6343L67.8543 16.674ZM80.1324 11.574C81.5324 11.574 82.7257 12.0873 83.7124 13.114C84.699 14.1407 85.1924 15.3807 85.1924 16.834C85.1924 18.3007 84.699 19.5473 83.7124 20.574C82.739 21.5873 81.5457 22.094 80.1324 22.094C78.479 22.094 77.219 21.434 76.3524 20.114V25.834H74.6124V11.834H76.3524V13.554C77.219 12.234 78.479 11.574 80.1324 11.574ZM79.9124 20.414C80.9124 20.414 81.7524 20.074 82.4324 19.394C83.1124 18.6873 83.4524 17.834 83.4524 16.834C83.4524 15.8207 83.1124 14.974 82.4324 14.294C81.7524 13.6007 80.9124 13.254 79.9124 13.254C78.899 13.254 78.0524 13.6007 77.3724 14.294C76.6924 14.974 76.3524 15.8207 76.3524 16.834C76.3524 17.834 76.6924 18.6873 77.3724 19.394C78.0524 20.074 78.899 20.414 79.9124 20.414ZM89.2086 15.434H91.6886C92.6886 15.434 93.5153 15.734 94.1686 16.334C94.8353 16.9207 95.1686 17.6873 95.1686 18.634C95.1686 19.5807 94.8353 20.354 94.1686 20.954C93.502 21.5407 92.6753 21.834 91.6886 21.834H87.4686V11.834H89.2086V15.434ZM96.4686 21.834V11.834H98.2086V21.834H96.4686ZM89.2086 20.214H91.6886C92.1953 20.214 92.6153 20.0673 92.9486 19.774C93.282 19.4807 93.4486 19.1007 93.4486 18.634C93.4486 18.1673 93.2753 17.7873 92.9286 17.494C92.5953 17.1873 92.182 17.034 91.6886 17.034H89.2086V20.214ZM99.9471 11.834H108.507V13.514H105.107V21.834H103.367V13.514H99.9471V11.834ZM111.972 15.434H114.452C115.452 15.434 116.279 15.734 116.932 16.334C117.599 16.9207 117.932 17.6873 117.932 18.634C117.932 19.5807 117.599 20.354 116.932 20.954C116.265 21.5407 115.439 21.834 114.452 21.834H110.232V11.834H111.972V15.434ZM111.972 20.214H114.452C114.959 20.214 115.379 20.0673 115.712 19.774C116.045 19.4807 116.212 19.1007 116.212 18.634C116.212 18.1673 116.039 17.7873 115.692 17.494C115.359 17.1873 114.945 17.034 114.452 17.034H111.972V20.214Z" fill="#232323"/>
    </g>
    <defs>
        <clipPath id="clip0_918_3342">
            <rect width="118.669" height="33.6691" fill="white"/>
        </clipPath>
    </defs>
</svg>
