<svg width="122" height="47" viewBox="0 0 122 47" fill="none" xmlns="http://www.w3.org/2000/svg">
    <g clip-path="url(#clip0_697_2471)">
        <path d="M62.5796 14.3249C61.4047 15.5467 59.9608 16.1576 58.2478 16.1576C56.5349 16.1576 55.0855 15.5467 53.8996 14.3249C52.7247 13.0798 52.1373 11.5612 52.1373 9.76922C52.1373 7.96559 52.7247 6.45286 53.8996 5.23104C55.0745 3.99759 56.5239 3.38086 58.2478 3.38086C59.9718 3.38086 61.4157 3.99759 62.5796 5.23104C63.7655 6.45286 64.3584 7.96559 64.3584 9.76922C64.3584 11.5612 63.7655 13.0798 62.5796 14.3249ZM56.222 11.8987C56.76 12.4572 57.4353 12.7365 58.2478 12.7365C59.0604 12.7365 59.7302 12.4572 60.2573 11.8987C60.7953 11.3285 61.0643 10.6187 61.0643 9.76922C61.0643 8.91977 60.7953 8.21577 60.2573 7.65722C59.7302 7.08704 59.0604 6.80195 58.2478 6.80195C57.4353 6.80195 56.76 7.08704 56.222 7.65722C55.6949 8.21577 55.4314 8.91977 55.4314 9.76922C55.4314 10.607 55.6949 11.3169 56.222 11.8987ZM70.8477 6.90668C71.9567 6.90668 72.8626 7.34304 73.5654 8.21577C74.2681 9.07686 74.6195 10.1765 74.6195 11.5147C74.6195 12.8529 74.2681 13.9525 73.5654 14.8136C72.8626 15.6863 71.9567 16.1227 70.8477 16.1227C69.9034 16.1227 69.1677 15.7794 68.6406 15.0929V19.3692H65.5936V7.15104H68.6406V7.9365C69.1677 7.24995 69.9034 6.90668 70.8477 6.90668ZM69.0359 12.6841C69.3104 12.9983 69.6673 13.1554 70.1065 13.1554C70.5457 13.1554 70.8971 12.9983 71.1606 12.6841C71.4352 12.37 71.5724 11.9801 71.5724 11.5147C71.5724 11.0492 71.4352 10.6594 71.1606 10.3452C70.8971 10.031 70.5457 9.87395 70.1065 9.87395C69.6673 9.87395 69.3104 10.031 69.0359 10.3452C68.7724 10.6594 68.6406 11.0492 68.6406 11.5147C68.6406 11.9801 68.7724 12.37 69.0359 12.6841ZM83.9326 12.6143H78.4644C78.728 13.1961 79.288 13.487 80.1444 13.487C80.6385 13.487 81.1052 13.3009 81.5444 12.9285L83.5373 14.7089C82.7138 15.6514 81.5499 16.1227 80.0456 16.1227C78.6511 16.1227 77.5201 15.6921 76.6527 14.831C75.8072 13.9583 75.3844 12.8645 75.3844 11.5496C75.3844 10.223 75.7962 9.11759 76.6197 8.23322C77.4543 7.34886 78.5029 6.90668 79.7656 6.90668C81.0173 6.90668 82.044 7.34304 82.8456 8.21577C83.6581 9.07686 84.0644 10.1649 84.0644 11.4798C84.0644 11.8405 84.0205 12.2187 83.9326 12.6143ZM78.415 10.5372H81.182C81.0064 9.83904 80.5616 9.48995 79.8479 9.48995C79.1343 9.48995 78.6566 9.83904 78.415 10.5372ZM90.382 6.90668C91.3043 6.90668 92.029 7.24413 92.5561 7.91904C93.0941 8.59395 93.3631 9.56559 93.3631 10.834V15.8783H90.3161V11.183C90.3161 10.4034 89.9757 10.0136 89.2949 10.0136C88.9325 10.0136 88.6525 10.1358 88.4549 10.3801C88.2682 10.6245 88.1749 10.962 88.1749 11.3925V15.8783H85.1278V7.15104H88.1749V8.00631C88.691 7.27322 89.4267 6.90668 90.382 6.90668ZM98.2253 11.3052V12.6667H102.508V15.8783H94.9311V3.66013H102.425V6.83686H98.2253V8.16341H102.013V11.3052H98.2253ZM109.282 7.9365V3.66013H112.329V15.8783H109.282V15.0929C108.755 15.7794 108.019 16.1227 107.075 16.1227C105.966 16.1227 105.06 15.6863 104.357 14.8136C103.654 13.9525 103.303 12.8529 103.303 11.5147C103.303 10.1765 103.654 9.07686 104.357 8.21577C105.06 7.34304 105.966 6.90668 107.075 6.90668C108.019 6.90668 108.755 7.24995 109.282 7.9365ZM106.745 12.6841C107.031 12.9983 107.388 13.1554 107.816 13.1554C108.255 13.1554 108.606 12.9983 108.87 12.6841C109.144 12.37 109.282 11.9801 109.282 11.5147C109.282 11.0492 109.144 10.6594 108.87 10.3452C108.606 10.031 108.255 9.87395 107.816 9.87395C107.388 9.87395 107.031 10.031 106.745 10.3452C106.482 10.6594 106.35 11.0492 106.35 11.5147C106.35 11.9801 106.482 12.37 106.745 12.6841ZM118.924 11.6369V7.15104H121.971V15.8783H118.924V15.023C118.419 15.7561 117.683 16.1227 116.717 16.1227C115.795 16.1227 115.065 15.7852 114.526 15.1103C113.999 14.4354 113.736 13.4638 113.736 12.1954V7.15104H116.783V11.8463C116.783 12.626 117.123 13.0158 117.804 13.0158C118.166 13.0158 118.441 12.8936 118.628 12.6492C118.825 12.4049 118.924 12.0674 118.924 11.6369Z" fill="black"/>
    </g>
    <path fill-rule="evenodd" clip-rule="evenodd" d="M43.1244 26.6075H59.2943C61.8259 27.5036 67.8692 30.0291 71.7892 32.962C73.0959 34.5913 74.5822 38.3389 70.0742 40.2941H41.4094C39.6944 41.6791 35.6274 43.618 33.0794 40.2941H28.9144V46.1598H28.1794L25.2394 43.7158L21.8094 45.671L21.3194 44.9378V40.5385H3.67952C0.902869 38.5833 -2.98445 34.184 3.67952 32.2288H21.0745C16.0928 31.2512 5.63951 29.247 3.67952 29.0515C1.22954 28.8071 3.67953 27.0963 4.16953 27.0963C6.53785 26.2816 11.3235 24.75 11.5195 25.141C12.1728 25.1411 13.2835 25.4343 12.4995 26.6075L8.57951 27.5851C14.2962 28.8886 26.2684 31.4467 28.4244 31.2512C21.8095 27.911 8.13851 20.8884 6.37452 19.5198C4.61053 18.1511 7.92618 17.8089 9.8045 17.8089H14.2145C14.6228 18.1348 15.1945 18.9332 14.2145 19.5198H10.5395C16.0928 22.4526 27.7384 28.7094 29.8944 30.2735C24.0961 23.8376 12.5485 10.379 12.7445 8.03275C14.0512 7.95129 17.8895 8.32604 22.7894 10.4768C22.9528 11.0471 22.8874 12.1387 21.3194 11.9432C20.5845 11.7803 18.5265 11.3078 16.1745 10.7212L30.6294 28.0739L22.2994 3.63347C22.1361 1.18943 24.2594 -1.89006 34.0594 5.3443C34.6311 5.3443 35.9704 6.1264 36.7544 9.25477L43.1244 26.6075ZM40.4294 27.0963L39.2044 29.5403C38.454 29.5403 38.2552 29.3569 38.1012 29.2148C38.0037 29.1249 37.9242 29.0515 37.7344 29.0515C37.3424 29.0515 32.0177 13.2467 29.4044 5.3443L32.8344 7.78834C33.8144 7.98387 34.3861 8.84743 34.5494 9.25477L40.4294 27.0963ZM33.8144 30.0291L35.5294 29.5403L26.4644 3.63347C25.7294 3.3076 24.3574 3.09578 24.7494 4.85549L33.8144 30.0291ZM65.1743 32.2288H42.3894C40.0374 31.6422 41.4094 29.2145 42.3894 28.0739H59.2943L65.1743 32.2288ZM43.1244 29.5403H45.5743V30.5179H43.1244V29.5403ZM48.2693 29.5403H50.2293V30.5179H48.2693V29.5403ZM52.9243 29.0515L53.1693 30.7623H55.6193L54.8843 29.5403L52.9243 29.0515ZM57.8243 29.5403C58.2163 29.5403 58.4776 30.355 58.5593 30.7623H61.0093L59.5393 29.5403H57.8243ZM42.8794 38.0945C43.206 37.2798 43.7614 35.4549 43.3694 34.6728H70.0742C70.8092 35.4875 71.6912 37.3124 69.3392 38.0945H42.8794ZM36.7544 32.4732C41.4094 32.4732 41.1363 38.8277 36.7544 38.8277C33.0794 38.8277 32.5894 32.4732 36.7544 32.4732ZM30.6294 34.6728C30.7927 35.8134 31.0704 38.0945 30.8744 38.0945H28.9144C29.0777 37.2798 28.8654 35.6504 26.7094 35.6504H22.7894C22.1361 35.6504 20.8785 36.1392 21.0745 38.0945H4.16953C2.69953 38.0945 1.42554 34.6728 4.16953 34.6728H30.6294ZM23.5244 42.7382V37.6057H26.4644V42.7382C25.4844 41.3695 24.0961 42.1679 23.5244 42.7382Z" fill="#78258D"/>
    <defs>
        <clipPath id="clip0_697_2471">
            <rect width="70" height="16" fill="white" transform="translate(52 3.36914)"/>
        </clipPath>
    </defs>
</svg>
