<svg width="52" height="52" viewBox="0 0 52 52" fill="none" xmlns="http://www.w3.org/2000/svg">
    <path fill-rule="evenodd" clip-rule="evenodd" d="M26 52C40.3594 52 52 40.3594 52 26C52 11.6406 40.3594 0 26 0C11.6406 0 0 11.6406 0 26C0 40.3594 11.6406 52 26 52ZM29.0981 8.91431H22.7832V12.0515H21.061C20.1999 12.0515 19.6258 12.6219 19.6258 13.4775V20.037L20.4869 21.1778L17.186 26.7392C16.3249 25.1706 15.7508 23.4594 15.7508 21.6056C15.7508 21.0352 15.7508 20.6074 15.8943 20.037H11.5887C11.4452 20.4648 11.4452 21.0352 11.4452 21.6056C11.4452 25.028 12.5934 28.3078 14.7462 30.732L11.4452 36.5786L10.1535 42.1399C9.8665 42.8529 10.8711 43.4233 11.4452 42.8529L15.6073 39.0027L18.4777 34.0118C20.6305 35.2952 23.0703 36.0082 25.7972 36.0082C28.524 36.0082 30.9639 35.2952 33.2602 34.0118L36.1306 39.0027L40.2926 42.8529C40.8667 43.4233 41.7278 42.8529 41.5843 42.1399L40.2926 36.5786L31.3944 21.1778L32.2555 20.037V13.4775C32.2555 12.6219 31.6814 12.0515 30.8203 12.0515H29.0981V8.91431ZM23.5008 25.1706L20.6305 30.3042C22.2092 31.1598 23.9314 31.7302 25.7972 31.7302C27.6629 31.7302 29.5287 31.1598 30.9639 30.3042L27.9499 25.1706L26.8018 26.5966C26.2277 27.3096 25.0796 27.3096 24.5055 26.5966L23.5008 25.1706ZM23.0703 20.037C23.6444 21.0352 24.649 21.6056 25.7972 21.6056C26.9453 21.6056 28.0935 21.0352 28.524 20.037C28.8111 19.6092 28.9546 19.0389 28.9546 18.4685C28.9546 16.7573 27.5194 15.3313 25.7972 15.3313C24.0749 15.3313 22.6397 16.7573 22.6397 18.4685C22.6397 19.0389 22.7832 19.6092 23.0703 20.037Z" fill="#78258D"/>
</svg>
