<svg width="48" height="48" viewBox="0 0 48 48" fill="none" xmlns="http://www.w3.org/2000/svg">
<path fill-rule="evenodd" clip-rule="evenodd" d="M20.7294 46.8424C33.7377 48.4623 45.6385 39.5488 47.3071 26.9326C48.979 14.3178 39.7849 2.77661 26.7751 1.15886C13.7636 -0.46132 1.86534 8.45316 0.195602 21.069C-1.47306 33.6842 7.71892 45.224 20.7294 46.8424ZM22 8.4687L11 14.9687C9.64622 15.7687 9.43593 17.6354 9.5 18.4688V30.9688C9.5 31.7687 10.1667 32.6354 10.5 32.9688L22.5 39.9688C23.7 40.3688 25 40.1354 25.5 39.9688C29.1667 37.8021 36.7 33.3688 37.5 32.9688C38.3 32.5688 38.5 31.4688 38.5 30.9688V18.4688C38.5 16.4688 36.8333 14.9688 36 14.4688C33 12.8021 26.7 9.2687 25.5 8.4687C24.3 7.6687 22.6667 8.13537 22 8.4687ZM22.9899 18.527C23.4898 18.1936 24.7898 17.727 25.9899 18.527L29.0001 20.4688C29.3259 20.5886 29.9923 21.3886 30.0001 21.9688C30.0038 22.2405 30.0025 23.6051 30.0013 24.8702C30.0007 25.4669 30.0001 26.0414 30.0001 26.4688C30.0001 26.9688 29.9899 27.527 29.0001 27.9688L25.9899 30.027C25.4898 30.3603 24.1898 30.827 22.9899 30.027L19.4899 27.9688C18.6263 27.3095 18.541 27.0005 18.5001 26.4688V21.527C18.5109 20.9377 18.709 20.6895 18.9899 20.4688L22.9899 18.527Z" fill="#78258D"/>
</svg>
