<svg width="50" height="50" viewBox="0 0 50 50" fill="none" xmlns="http://www.w3.org/2000/svg">
    <path fill-rule="evenodd" clip-rule="evenodd" d="M49.3066 25.9639C47.638 38.5801 35.7372 47.4935 22.7289 45.8737C19.0085 45.4109 15.6004 44.1368 12.6691 42.2583C21.3744 36.2338 33.3407 26.1541 33 19C41.5 21 43.5 11.9285 39.5 8.5C35 4.64293 27.5 8.49999 29.5002 15C26.5002 14.6666 18.0002 17.6 8.00021 32C7.66687 32.6666 8.40021 33.6 14.0002 32L7.84268 38.1574C3.54554 33.3697 1.2969 26.8908 2.19511 20.1003C3.86485 7.48441 15.7631 -1.43007 28.7747 0.190112C41.7844 1.80786 50.9785 13.349 49.3066 25.9639Z" fill="#78258D"/>
    <path d="M2.99998 43C2.49998 43.5 1.79998 44.7 2.99998 45.5L0 48.5H6L7.5 50H10L8.5 45C9.736 44.2337 11.1531 43.3075 12.6691 42.2583C10.8674 41.1037 9.24583 39.7207 7.84268 38.1574L2.99998 43Z" fill="#78258D"/>
</svg>
